<svg xmlns="http://www.w3.org/2000/svg" viewBox="0 0 67.98 22.3"><defs><style>.cls-1{fill:#da2128;}</style></defs><g id="Layer_2" data-name="Layer 2"><g id="Layer_1-2" data-name="Layer 1"><path class="cls-1" d="M9.81,6.84,4.65,11.57c-.36.44-1.33.4-1.27-.22v-3c0-.47.21-.69.63-.69l1.43.58a1.25,1.25,0,0,0,.83-.36L8,6.3c.28-.31.23-.48-.16-.52L1.72,3.92C.59,3.61,0,4.52,0,5.6v8.1c0,1.16.72,1.75,2.13,1.75H3.59a5.31,5.31,0,0,0,3.56-1.71l3.18-3a.61.61,0,0,1,.93,0l3.35,3a5.29,5.29,0,0,0,3.56,1.71h1.45c1.43,0,2.14-.59,2.14-1.75V1.83c0-1.08-.4-2.26-1.72-1.68L13.87,4.46c-.29.23-.66.43-.17.91L15.35,6.9c.41.43.69.17,1,0l1.43-1c.41-.12.63.21.63.68v4.81c0,.72-.91.58-1.29.23L11.8,6.84a1.49,1.49,0,0,0-1-.35,1.31,1.31,0,0,0-1,.36Z"/><path class="cls-1" d="M30.1,14.29c0,.42-.31.64-.82.64H27.73c-.55,0-.82-.24-.82-.72V13c0-.49.27-.73.82-.73h1.55c.54,0,.82.21.82.63h-2c-.25,0-.37.09-.37.28V14c0,.18.12.28.37.28Z"/><path class="cls-1" d="M35.21,12.28h2.28v.64h-2v1.37h2v.64H35.21a.48.48,0,0,1-.54-.55V12.83a.48.48,0,0,1,.54-.55"/><polygon class="cls-1" points="36.67 13.29 36.94 13.93 35.48 13.93 35.21 13.29 36.67 13.29"/><path class="cls-1" d="M43.65,13.83l.82-1.27a.64.64,0,0,1,.55-.28h.73v2.65h-.82V13.2l-1.09,1.73h-.37L42.38,13.2v1.73h-.83V12.28h.74a.61.61,0,0,1,.54.28Z"/><path class="cls-1" d="M50.36,12.28h2.28v.64h-2v1.37h2v.64H50.36a.49.49,0,0,1-.55-.55V12.83a.49.49,0,0,1,.55-.55"/><polygon class="cls-1" points="51.82 13.29 52.09 13.93 50.63 13.93 50.36 13.29 51.82 13.29"/><path class="cls-1" d="M57.75,12.28a.88.88,0,0,1,.64.28l1.37,1.55V12.28h.82v2.65h-.73a.9.9,0,0,1-.64-.28L57.85,13.1v1.83H57V12.28Z"/><path class="cls-1" d="M64.87,12.28h3v.64h-3Zm1.1.44.81.19v2H66Z"/><path class="cls-1" d="M31.91,9.06,30.52,5.42H29.14L27.75,9.06,26.19,5.42H24.63l1.9,4.51c.12.35.44.52,1,.52h1.1l1.22-3.12,1,2.6c.11.35.46.52,1,.52h1l2.07-5H33.47Z"/><path class="cls-1" d="M40.43,5.42H37c-1,0-1.56.46-1.56,1.39V9.06c0,.92.52,1.39,1.56,1.39h3.47c1,0,1.56-.47,1.56-1.39V6.81c0-.93-.52-1.39-1.56-1.39m0,3.3c0,.34-.23.52-.69.52H37.66c-.46,0-.69-.18-.69-.52V7.15c0-.34.23-.52.69-.52h2.08c.46,0,.69.18.69.52Z"/><path class="cls-1" d="M55.5,6.46v3a.93.93,0,0,0,1,1h4.33V9.24H57.06V8.55H59.6l-.52-1.22h-2v-.7h3.81V5.42H56.54a.92.92,0,0,0-1,1"/><path class="cls-1" d="M53.08,5.42h-5V8.89l-2.6-2.95a1.67,1.67,0,0,0-1.21-.52H42.86v5h1.55V7L47,9.93a1.7,1.7,0,0,0,1.22.52h1.38V6.63h2.78c.46,0,.69.18.69.52V8.72c0,.34-.23.52-.69.52h-2l.51,1.21h2.22c1,0,1.56-.47,1.56-1.39V6.81c0-.93-.52-1.39-1.56-1.39"/><path class="cls-1" d="M63.82,7.84l2.44,2.62H68L66.65,9.05A1.27,1.27,0,0,0,68,7.66V6.8c0-.92-.52-1.39-1.56-1.39H61.74v5H63.3V6.63h2.43c.46,0,.69.17.69.52v.17c0,.35-.23.53-.69.53Z"/><rect class="cls-1" x="0.48" y="20.8" width="10.16" height="0.23"/><rect class="cls-1" x="57.02" y="20.8" width="10.16" height="0.23"/><polygon class="cls-1" points="14.39 21.12 13.41 21.12 13.41 21.75 14.51 21.75 14.51 22.26 12.79 22.26 12.79 19.57 14.46 19.57 14.46 20.06 13.41 20.06 13.41 20.62 14.39 20.62 14.39 21.12"/><path class="cls-1" d="M14.93,19.57h.6v1.18h0l.18-.29.61-.89h.75l-.89,1.14.93,1.55h-.71l-.66-1.17-.23.29v.88h-.6Z"/><path class="cls-1" d="M19,19.6a5.15,5.15,0,0,1,.83-.06,1.32,1.32,0,0,1,.82.22.8.8,0,0,1,.29.62.87.87,0,0,1-.25.64,1.28,1.28,0,0,1-.88.29l-.2,0v1H19V19.6Zm.61,1.22.2,0c.32,0,.52-.16.52-.44s-.17-.4-.47-.4a1,1,0,0,0-.25,0Z"/><polygon class="cls-1" points="22.92 21.12 21.92 21.12 21.92 21.75 23.03 21.75 23.03 22.26 21.31 22.26 21.31 19.57 22.98 19.57 22.98 20.06 21.92 20.06 21.92 20.62 22.92 20.62 22.92 21.12"/><path class="cls-1" d="M23.45,19.6a5.49,5.49,0,0,1,.81-.06,1.33,1.33,0,0,1,.87.22.66.66,0,0,1,.24.56.71.71,0,0,1-.47.66h0a.7.7,0,0,1,.36.51c.08.3.17.65.22.76h-.62a3.07,3.07,0,0,1-.19-.63c-.07-.34-.19-.43-.44-.44h-.18v1.07h-.61V19.6Zm.6,1.16h.24c.3,0,.48-.15.48-.39s-.16-.37-.44-.38a1.2,1.2,0,0,0-.28,0Z"/><polygon class="cls-1" points="25.82 19.57 27.46 19.57 27.46 20.06 26.43 20.06 26.43 20.67 27.39 20.67 27.39 21.18 26.43 21.18 26.43 22.26 25.82 22.26 25.82 19.57"/><polygon class="cls-1" points="29.52 21.12 28.53 21.12 28.53 21.75 29.64 21.75 29.64 22.26 27.92 22.26 27.92 19.57 29.58 19.57 29.58 20.06 28.53 20.06 28.53 20.62 29.52 20.62 29.52 21.12"/><path class="cls-1" d="M32,22.18a1.86,1.86,0,0,1-.69.11A1.28,1.28,0,0,1,29.93,21a1.38,1.38,0,0,1,1.47-1.44,1.5,1.5,0,0,1,.66.13l-.12.48a1.41,1.41,0,0,0-.52-.1.89.89,0,0,0,0,1.77,1.73,1.73,0,0,0,.51-.09Z"/><polygon class="cls-1" points="33 20.07 32.28 20.07 32.28 19.57 34.35 19.57 34.35 20.07 33.61 20.07 33.61 22.26 33 22.26 33 20.07"/><path class="cls-1" d="M36.3,21.63a1.66,1.66,0,0,0,.68.17c.28,0,.43-.12.43-.29s-.13-.27-.45-.38-.74-.41-.74-.8.38-.81,1-.81a1.47,1.47,0,0,1,.68.14l-.13.49a1.31,1.31,0,0,0-.56-.13c-.27,0-.4.12-.4.26s.16.25.5.38.7.42.7.8-.35.83-1.09.83a1.69,1.69,0,0,1-.76-.16Z"/><polygon class="cls-1" points="39.05 19.57 39.05 20.59 40.05 20.59 40.05 19.57 40.66 19.57 40.66 22.26 40.05 22.26 40.05 21.13 39.05 21.13 39.05 22.26 38.44 22.26 38.44 19.57 39.05 19.57"/><path class="cls-1" d="M41.8,19.57v1.54c0,.46.17.71.49.71s.49-.23.49-.71V19.57h.61v1.5c0,.83-.42,1.23-1.12,1.23s-1.08-.38-1.08-1.24V19.57Z"/><path class="cls-1" d="M43.92,19.6a5.38,5.38,0,0,1,.81-.06,1.31,1.31,0,0,1,.87.22.66.66,0,0,1,.25.56.72.72,0,0,1-.48.66h0a.7.7,0,0,1,.36.51c.08.3.17.65.22.76h-.62a3.07,3.07,0,0,1-.19-.63c-.07-.34-.19-.43-.44-.44h-.18v1.07h-.6V19.6Zm.6,1.16h.24c.3,0,.48-.15.48-.39s-.16-.37-.45-.38a1.09,1.09,0,0,0-.27,0Z"/><path class="cls-1" d="M46.87,19.57v1.54c0,.46.18.71.49.71s.49-.23.49-.71V19.57h.61v1.5c0,.83-.42,1.23-1.12,1.23s-1.08-.38-1.08-1.24V19.57Z"/><path class="cls-1" d="M49.5,21.57l-.2.69h-.63l.83-2.69h.79l.84,2.69h-.65l-.21-.69Zm.68-.46L50,20.54c0-.16-.1-.37-.14-.52h0c0,.15-.08.36-.13.52l-.16.57Z"/><path class="cls-1" d="M52.12,21.57l-.2.69h-.63l.83-2.69h.8l.83,2.69h-.66l-.21-.69Zm.68-.46-.17-.57c-.05-.16-.1-.37-.14-.52h0l-.13.52-.15.57Z"/><polygon class="cls-1" points="54.29 20.07 53.57 20.07 53.57 19.57 55.64 19.57 55.64 20.07 54.9 20.07 54.9 22.26 54.29 22.26 54.29 20.07"/></g></g></svg>